<!DOCTYPE svg PUBLIC "-//W3C//DTD SVG 1.1//EN" "http://www.w3.org/Graphics/SVG/1.1/DTD/svg11.dtd">
<!-- Uploaded to: SVG Repo, www.svgrepo.com, Transformed by: SVG Repo Mixer Tools -->
<svg width="800px" height="800px" viewBox="0 0 32 32" xmlns="http://www.w3.org/2000/svg" fill="#ffffff">
<g id="SVGRepo_bgCarrier" stroke-width="0"/>
<g id="SVGRepo_tracerCarrier" stroke-linecap="round" stroke-linejoin="round"/>
<g id="SVGRepo_iconCarrier"> <defs> <style>.cls-1{fill:#ffffff;}.cls-2{fill:#ffffff;}</style> </defs> <title/> <g id="Chart"> <rect class="cls-1" height="13" rx="1" ry="1" width="6" x="5" y="17"/> <rect class="cls-1" height="17" rx="1" ry="1" width="6" x="21" y="13"/> <rect class="cls-1" height="24" rx="1" ry="1" width="6" x="13" y="6"/> <path class="cls-2" d="M27,14a1,1,0,0,0-.29-.71L21,17.66V29a1,1,0,0,0,1,1h4a1,1,0,0,0,1-1Z"/> <path class="cls-2" d="M13,23.77V29a1,1,0,0,0,1,1h4a1,1,0,0,0,1-1V19.19Z"/> <path class="cls-2" d="M5.27,29.68A1,1,0,0,0,6,30h4a1,1,0,0,0,1-1V25.3Z"/> </g> </g>
</svg>