<svg xmlns="http://www.w3.org/2000/svg" version="1.1" viewBox="539.84 413 4722.16 4695.43">
<path d="M0 0 C17.85723775 48.92079282 26.07266166 102.15998121 29 154 C29.04130035 154.71447296 29.08260071 155.42894592 29.12515259 156.16506958 C29.916539 170.13425765 30.20274512 184.07213526 30.1875 198.0625 C30.18689575 199.1014743 30.1862915 200.14044861 30.18566895 201.21090698 C30.05608211 284.09037864 15.8666265 365.73995324 -91 630 C-91.65371582 631.13727539 -92.30743164 632.27455078 -92.98095703 633.44628906 C-101.85694204 648.88244844 -111.01490179 664.0503009 -120.90722656 678.86376953 C-122.83535997 681.75327043 -124.75454805 684.6484413 -126.67082214 687.54580688 C-135.90694832 701.5081983 -145.1596306 715.45300352 -155 729 C-155.53753906 729.74185547 -156.07507812 730.48371094 -156.62890625 731.24804688 C-164.66186595 742.30937749 -172.92429489 753.17601987 -181.37011719 763.92480469 C-182.91959268 765.897624 -184.46444511 767.87396301 -186.0078125 769.8515625 C-193.77450511 779.79143673 -201.73895751 789.55112781 -209.91186523 799.15991211 C-212.84283661 802.61139859 -215.71714751 806.10218263 -218.5625 809.625 C-222.43579272 814.38520053 -226.50759992 818.92804784 -230.66015625 823.4453125 C-232.65834848 825.62697815 -234.62148889 827.83011309 -236.5625 830.0625 C-243.7204178 838.28826568 -251.08577116 846.33165793 -258.47705078 854.34765625 C-259.51300171 855.47162481 -260.54778961 856.59666618 -261.58154297 857.72265625 C-269.20950299 866.02333621 -277.00928875 874.11267983 -285.05126953 882.0144043 C-288.35893886 885.28048018 -291.5489546 888.57795503 -294.578125 892.10546875 C-297.76749367 895.80632718 -301.19258562 899.10111781 -304.8125 902.375 C-311.62440606 908.62452676 -318.17586693 915.10416014 -324.6574707 921.69482422 C-328.63616507 925.72002926 -332.69830215 929.55175245 -336.98852539 933.24243164 C-340.59021254 936.38948174 -344.03434256 939.70478472 -347.5 943 C-352.31255977 947.5758765 -357.16945635 952.06817881 -362.18701172 956.41894531 C-364.60368985 958.52646048 -366.95726063 960.69924232 -369.3125 962.875 C-373.82903837 966.99906676 -378.49133016 970.87936865 -383.25 974.71875 C-386.08099578 977.06718968 -388.79383598 979.50909902 -391.5 982 C-395.91156385 986.05538943 -400.45187882 989.8847374 -405.11328125 993.6484375 C-408.30011771 996.24448019 -411.43335825 998.89754397 -414.5625 1001.5625 C-419.05515754 1005.38057256 -423.59684317 1009.11973939 -428.21875 1012.78125 C-431.07580205 1015.0604713 -433.90760557 1017.36850479 -436.73779297 1019.6809082 C-444.39007492 1025.9293413 -452.14232855 1032.01227995 -460 1038 C-461.15045688 1038.88709136 -462.30018304 1039.77513109 -463.44921875 1040.6640625 C-468.89685487 1044.87723994 -474.35046147 1049.05846149 -480 1053 C-472.58141115 1051.48533751 -465.37028294 1049.39837379 -458.11236572 1047.26193237 C-378.80160525 1024.03493939 -297.48713219 1009.90924009 -215 1005 C-214.21612915 1004.9516098 -213.4322583 1004.9032196 -212.62463379 1004.85336304 C-194.2638292 1003.75248083 -175.88625176 1003.79740836 -157.5 1003.8125 C-156.68855278 1003.81291416 -155.87710556 1003.81332832 -155.04106903 1003.81375504 C-130.64366241 1003.82934225 -106.32472589 1003.93760248 -82 1006 C-81.08734375 1006.07541016 -80.1746875 1006.15082031 -79.234375 1006.22851562 C-1.02833648 1012.71111166 76.34132104 1026.47305648 151 1051 C151.72495667 1051.23698608 152.44991333 1051.47397217 153.19683838 1051.71813965 C179.87199642 1060.44617489 205.91854308 1070.39255291 231.5625 1081.8125 C232.72120605 1082.3273999 233.87991211 1082.8422998 235.07373047 1083.37280273 C242.91754148 1086.91713172 250.47463824 1090.83095113 258 1095 C249.71753552 1104.89294368 240.85222549 1114.23764312 231.75 1123.375 C230.77667725 1124.35521118 230.77667725 1124.35521118 229.78369141 1125.35522461 C225.95619869 1129.17057734 222.00467565 1132.77180654 217.91503906 1136.30322266 C214.97687804 1138.90651423 212.24243318 1141.69366135 209.5 1144.5 C205.50363714 1148.54151627 201.48114364 1152.4574455 197.14453125 1156.13671875 C194.83785189 1158.14088279 192.60714752 1160.21325907 190.37451172 1162.29907227 C184.96741082 1167.35013396 179.45262335 1172.15398067 173.6796875 1176.7890625 C170.86746685 1179.1093495 168.18202737 1181.53071134 165.5 1184 C160.17025607 1188.89374231 154.63229749 1193.46107316 149 1198 C147.78172437 1198.99768805 146.56432693 1199.99644911 145.34765625 1200.99609375 C136.48501162 1208.26505603 127.47189919 1215.30408625 118.33496094 1222.22412109 C115.82210694 1224.13529842 113.32055827 1226.0606426 110.8203125 1227.98828125 C101.79722985 1234.93221406 92.72958471 1241.724025 83.2890625 1248.08984375 C79.9870423 1250.31676921 76.71990414 1252.58943512 73.4609375 1254.87890625 C63.20658226 1262.08162233 52.92266658 1269.11085657 42.22216797 1275.63183594 C39.66710297 1277.204961 37.13206115 1278.80786743 34.59765625 1280.4140625 C12.61081563 1294.32705289 -9.91226533 1307.17504573 -32.90087891 1319.35644531 C-35.85875802 1320.92509524 -38.8104258 1322.5049421 -41.76171875 1324.0859375 C-56.57453374 1331.9721279 -71.70483939 1339.10425287 -87 1346 C-87.62239563 1346.2814386 -88.24479126 1346.5628772 -88.88604736 1346.85284424 C-169.97491241 1383.5034584 -255.47606253 1409.16749439 -465 1437 C-466.32342407 1437.0725853 -466.32342407 1437.0725853 -467.67358398 1437.14663696 C-485.90231061 1438.11236112 -504.12649307 1438.20033362 -522.375 1438.1875 C-523.13081989 1438.18738041 -523.88663979 1438.18726082 -524.66536331 1438.1871376 C-549.82272289 1438.18211446 -574.89617631 1437.7621101 -600 1436 C-600.83321777 1435.94201233 -601.66643555 1435.88402466 -602.52490234 1435.82427979 C-618.88829436 1434.67694106 -635.2748395 1433.50181838 -651.56616211 1431.55859375 C-655.7330534 1431.06942549 -659.80562705 1430.92964278 -664 1431 C-663.60844727 1431.57218262 -663.21689453 1432.14436523 -662.81347656 1432.73388672 C-639.65367364 1466.59478947 -617.19045402 1500.8672429 -596 1536 C-595.39542969 1536.99902344 -594.79085937 1537.99804688 -594.16796875 1539.02734375 C-575.50432101 1569.87147738 -557.7082703 1601.20358889 -540.64208984 1632.95849609 C-539.04124402 1635.92360719 -537.42307005 1638.87860843 -535.80078125 1641.83203125 C-517.88968952 1674.62430929 -500.99220406 1708.24535741 -485.66162109 1742.32177734 C-484.06059031 1745.87616173 -482.43359735 1749.41840037 -480.8057251 1752.96055603 C-448.74069908 1822.76076647 -421.19573149 1894.37565714 -396.92260742 1967.23474121 C-396.06848198 1969.79474435 -395.21005214 1972.35324732 -394.34960938 1974.91113281 C-361.91248103 2071.4521737 -338.46600587 2171.24471661 -291.83203125 2593.79296875 C-291.82962175 2595.7982515 -291.82720908 2597.80353426 -291.82457083 2599.80881673 C-291.81652959 2606.0995171 -291.81397648 2612.39020327 -291.81469727 2618.6809082 C-291.81522649 2624.31440101 -291.80823646 2629.94782381 -291.79418945 2635.58129883 C-291.70853495 2670.76386506 -292.12742614 2705.85768066 -294 2741 C-294.0764907 2742.46564614 -294.15295898 2743.93129344 -294.22940063 2745.39694214 C-294.66517474 2753.64463609 -295.18184049 2761.88542745 -295.75 2770.125 C-295.83270142 2771.34263031 -295.91540283 2772.56026062 -296.00061035 2773.81478882 C-303.19894821 2878.9140419 -317.86050896 2983.66587169 -352.2434082 3134.9118042 C-352.95581797 3137.81966131 -353.66469373 3140.72835963 -354.37304688 3143.63720703 C-365.68165653 3189.92881326 -379.15599589 3235.72428808 -394 3281 C-394.50314849 3282.53985799 -395.00624102 3284.07973427 -395.50927734 3285.61962891 C-398.93915158 3296.10257218 -402.43875243 3306.56097128 -406 3317 C-406.25160889 3317.73762573 -406.50321777 3318.47525146 -406.76245117 3319.23522949 C-435.2743642 3402.67864259 -470.07246614 3483.91028649 -539.48681641 3622.25146484 C-542.22042981 3627.21677941 -544.86535164 3632.22978961 -547.52670288 3637.23406982 C-553.62994062 3648.69957592 -559.91120759 3660.04587057 -566.42822266 3671.28173828 C-568.12257354 3674.21198101 -569.8023579 3677.15027235 -571.48046875 3680.08984375 C-584.84913818 3703.46363678 -598.88006103 3726.41884718 -613.23535156 3749.19873047 C-614.3773511 3751.01158364 -615.51745256 3752.82563449 -616.65527344 3754.64111328 C-639.07130791 3790.40260219 -662.95922149 3825.30799604 -687.7265625 3859.4765625 C-689.87691382 3862.44366447 -692.01730316 3865.41750504 -694.1484375 3868.3984375 C-701.91989058 3879.25223398 -709.94412836 3889.89616332 -718.07177734 3900.48535156 C-719.89211171 3902.8592999 -721.70704786 3905.23724195 -723.51953125 3907.6171875 C-729.83348657 3915.90460033 -736.21240538 3924.13593913 -742.67041016 3932.31152344 C-743.99813855 3933.9976361 -745.318487 3935.68926782 -746.63671875 3937.3828125 C-753.34048462 3945.98419545 -760.23693246 3954.41520083 -767.19287109 3962.81347656 C-768.99472389 3964.9936162 -770.78953412 3967.17935143 -772.58203125 3969.3671875 C-779.46148627 3977.76017934 -786.425606 3986.06793249 -793.51904297 3994.28076172 C-795.05071114 3996.0588704 -796.57511114 3997.84298135 -798.09765625 3999.62890625 C-802.56906044 4004.8709995 -807.04977886 4010.0908377 -811.6875 4015.1875 C-814.78968008 4018.59821516 -817.73238274 4022.0973376 -820.625 4025.6875 C-823.68657725 4029.47194966 -826.84563501 4032.96488014 -830.33984375 4036.34765625 C-832.04384226 4038.04363594 -833.61714083 4039.80489696 -835.1875 4041.625 C-839.80537021 4046.97472018 -844.6321358 4052.13108926 -849.43701172 4057.31201172 C-850.92095404 4058.91463234 -852.40084559 4060.52086155 -853.87890625 4062.12890625 C-856.36624974 4064.83466933 -858.86025589 4067.53414914 -861.35888672 4070.22949219 C-862.4786772 4071.4375732 -863.59744919 4072.64659887 -864.71533203 4073.85644531 C-874.24006717 4084.14825577 -884.04049922 4094.1321028 -894.01879883 4103.98193359 C-898.67572886 4108.59666308 -903.16373133 4113.25257286 -907.42749023 4118.23168945 C-909.93291133 4121.04907262 -912.70204835 4123.54112474 -915.5 4126.0625 C-923.54450165 4133.42904131 -931.21757258 4141.15620585 -938.87890625 4148.91625977 C-943.55375048 4153.6389977 -948.27468462 4158.22848712 -953.32641602 4162.54907227 C-955.49517865 4164.4292993 -957.50199577 4166.44051872 -959.5 4168.5 C-962.74256259 4171.78103368 -966.07047022 4174.85459996 -969.5703125 4177.85546875 C-972.94544268 4180.83448236 -976.21765093 4183.91946264 -979.5 4187 C-983.97593667 4191.19663473 -988.4632918 4195.35884348 -993.11328125 4199.36328125 C-995.43658787 4201.37873772 -997.71748465 4203.43848462 -1000 4205.5 C-1007.6513366 4212.39779588 -1015.44984535 4219.11627509 -1023.27734375 4225.8125 C-1025.73163705 4227.91232 -1028.1820438 4230.01652637 -1030.62890625 4232.125 C-1036.76158814 4237.40552484 -1042.93494177 4242.61777626 -1049.21875 4247.71875 C-1052.36384275 4250.29843281 -1055.46463794 4252.92650101 -1058.5625 4255.5625 C-1063.08412405 4259.40393799 -1067.64980961 4263.17454723 -1072.30078125 4266.859375 C-1074.32621837 4268.46565509 -1076.34356418 4270.08005696 -1078.35546875 4271.703125 C-1085.71044503 4277.62911755 -1093.14474617 4283.43302413 -1100.66674805 4289.14550781 C-1105.29717746 4292.67095436 -1109.85327404 4296.27409843 -1114.375 4299.9375 C-1122.24364971 4306.2916552 -1130.38654729 4312.25423882 -1138.55615234 4318.21337891 C-1141.77403283 4320.56587135 -1144.97910241 4322.93548356 -1148.18432617 4325.30517578 C-1175.45531034 4345.45675612 -1203.2186403 4364.88742113 -1231.4375 4383.6875 C-1232.21758423 4384.20746552 -1232.99766846 4384.72743103 -1233.8013916 4385.26315308 C-1247.43051097 4394.34200809 -1261.14968767 4403.26136496 -1275 4412 C-1275.94568848 4412.60005859 -1276.89137695 4413.20011719 -1277.86572266 4413.81835938 C-1294.75431808 4424.53198136 -1311.91309111 4434.77012318 -1329.14923096 4444.91088867 C-1330.88760076 4445.93385707 -1332.6252229 4446.95809568 -1334.36279297 4447.98242188 C-1356.14118652 4460.8112091 -1378.19891634 4473.11083278 -1400.4609375 4485.07885742 C-1403.15915909 4486.53658807 -1405.84244993 4488.01986056 -1408.5234375 4489.5090332 C-1423.30853727 4497.6934755 -1438.34323273 4505.32706014 -1453.46533203 4512.86303711 C-1456.91620308 4514.58280518 -1460.36341918 4516.30975879 -1463.80971718 4518.03866863 C-1481.72806656 4527.02322321 -1499.76490581 4535.67452238 -1518 4544 C-1519.77395852 4544.813161 -1521.54788665 4545.6263883 -1523.32177734 4546.43969727 C-1527.99922177 4548.57949635 -1532.68458055 4550.7013071 -1537.375 4552.8125 C-1538.61629166 4553.37136902 -1538.61629166 4553.37136902 -1539.88265991 4553.94152832 C-1596.43905393 4579.36340592 -1654.31106362 4602.0064007 -1713 4622 C-1713.76209778 4622.25976624 -1714.52419556 4622.51953247 -1715.30938721 4622.78717041 C-1726.51446338 4626.60182446 -1737.74739825 4630.32808904 -1749 4634 C-1749.78060791 4634.25525452 -1750.56121582 4634.51050903 -1751.36547852 4634.77349854 C-1793.27339772 4648.46727271 -1835.66661601 4660.50596504 -1878.40057373 4671.34039307 C-1881.00354748 4672.00090018 -1883.60556487 4672.66508091 -1886.20751953 4673.32958984 C-1989.72466722 4699.69584693 -2095.65607666 4717.21993099 -3039.58752441 4636.76379395 C-3041.93482956 4636.02063308 -3044.28318156 4635.28087643 -3046.63183594 4634.54199219 C-3126.69972545 4609.31525577 -3204.82704041 4578.09415502 -3281.01831055 4542.91369629 C-3282.94518007 4542.02527579 -3284.87368651 4541.14051502 -3286.80273438 4540.25683594 C-3306.33630084 4531.29854946 -3325.60158992 4521.80300198 -3344.82860184 4512.20841217 C-3346.71712566 4511.26639804 -3348.60628486 4510.32566906 -3350.49557495 4509.38519287 C-3365.40841949 4501.95728356 -3380.16564411 4494.30857128 -3394.74389648 4486.24243164 C-3397.81214367 4484.55275412 -3400.89941643 4482.90218867 -3403.9921875 4481.2578125 C-3415.52605459 4475.11914034 -3426.92376063 4468.80823886 -3438.18017578 4462.17358398 C-3444.82382383 4458.25801188 -3451.51799074 4454.44871537 -3458.25 4450.6875 C-3478.97578045 4439.05564791 -3499.13567148 4426.40753734 -3519.23828125 4413.73828125 C-3521.79048825 4412.1318709 -3524.34779999 4410.53393963 -3526.90625 4408.9375 C-3554.78583105 4391.45350699 -3582.12843618 4372.99325817 -3609 4354 C-3610.50482709 4352.94346721 -3612.01002676 4351.88746484 -3613.515625 4350.83203125 C-3617.6880359 4347.90333327 -3621.84733624 4344.95661778 -3626 4342 C-3627.05550049 4341.24952393 -3627.05550049 4341.24952393 -3628.13232422 4340.48388672 C-3638.89680971 4332.81567011 -3649.4536063 4324.89993597 -3659.9453125 4316.86328125 C-3664.44128146 4313.42033791 -3668.96340651 4310.01415432 -3673.5 4306.625 C-3680.3812179 4301.47779418 -3687.21496743 4296.27336269 -3694 4291 C-3694.54833496 4290.57396484 -3695.09666992 4290.14792969 -3695.66162109 4289.70898438 C-3704.52251748 4282.81235127 -3713.25562923 4275.7653352 -3721.95458984 4268.66601562 C-3724.00389971 4266.99682363 -3726.05779133 4265.3334489 -3728.11328125 4263.671875 C-3734.94226152 4258.14835114 -3741.72717317 4252.58401481 -3748.41210938 4246.88671875 C-3751.80025725 4244.00192868 -3755.22891513 4241.1748068 -3758.6875 4238.375 C-3763.08514096 4234.79833687 -3767.29268157 4231.05675177 -3771.48046875 4227.23828125 C-3774.03204917 4224.97152842 -3776.65171532 4222.82459913 -3779.3125 4220.6875 C-3784.76376101 4216.27861892 -3789.87713498 4211.5647602 -3795 4206.78515625 C-3797.96412294 4204.02153664 -3800.99575617 4201.34501292 -3804.05859375 4198.69140625 C-3811.64588668 4192.08114903 -3819.03663396 4185.24479318 -3826.44238281 4178.43261719 C-3827.46996119 4177.48750278 -3828.49794731 4176.54283148 -3829.52636719 4175.59863281 C-3833.36152477 4172.07714946 -3837.18404633 4168.54227905 -3841 4165 C-3841.95302002 4164.11683105 -3841.95302002 4164.11683105 -3842.92529297 4163.21582031 C-3852.28729716 4154.52529466 -3861.44247211 4145.66172053 -3870.40478516 4136.55834961 C-3874.49955129 4132.41704197 -3878.67593 4128.47445125 -3883.09106445 4124.67749023 C-3886.21138776 4121.93548468 -3889.1362321 4119.00865194 -3892.0625 4116.0625 C-3892.63548828 4115.49337891 -3893.20847656 4114.92425781 -3893.79882812 4114.33789062 C-3896.73300783 4111.39710984 -3899.54468805 4108.40242227 -3902.24609375 4105.24609375 C-3906.87966571 4099.88794092 -3911.95929323 4094.96975848 -3917 4090 C-3922.7109003 4084.36948101 -3928.36087393 4078.74374619 -3933.578125 4072.64453125 C-3935.29279027 4070.6613607 -3937.11447013 4068.8205116 -3939 4067 C-3941.56560838 4064.52286087 -3943.94484032 4061.94120754 -3946.28125 4059.25 C-3949.91638537 4055.06455629 -3953.68806345 4051.02414745 -3957.5 4047 C-3961.90863371 4042.3459372 -3966.23010841 4037.64082385 -3970.43261719 4032.79931641 C-3972.37968954 4030.56412587 -3974.37494469 4028.37529997 -3976.375 4026.1875 C-3979.48528851 4022.74621795 -3982.46478312 4019.23678702 -3985.375 4015.625 C-3988.61952732 4011.6117345 -3991.98749324 4007.77586874 -3995.5 4004 C-3999.7339621 3999.44405527 -4003.72931665 3994.74728841 -4007.62890625 3989.90234375 C-4010.31830412 3986.61037897 -4013.09148901 3983.39975503 -4015.875 3980.1875 C-4020.38706974 3974.96679934 -4024.70255319 3969.62683138 -4028.9296875 3964.17382812 C-4031.97961708 3960.25436274 -4035.13539842 3956.45106887 -4038.375 3952.6875 C-4043.17161568 3947.09890099 -4047.65366272 3941.30294031 -4052.09765625 3935.43164062 C-4055.61693516 3930.78768649 -4059.20830737 3926.21567785 -4062.875 3921.6875 C-4068.12384423 3915.18536918 -4073.15260163 3908.53173016 -4078.14526367 3901.83154297 C-4082.10618443 3896.51709369 -4086.10663645 3891.23615124 -4090.14233398 3885.97827148 C-4096.64935978 3877.49668921 -4102.97329593 3868.92575402 -4109.0859375 3860.15625 C-4111.5784047 3856.58354516 -4114.12728667 3853.05524126 -4116.69335938 3849.53515625 C-4129.39076169 3832.10494656 -4141.28112417 3814.12098121 -4153.25 3796.1875 C-4153.7994931 3795.36464508 -4154.34898621 3794.54179016 -4154.91513062 3793.69400024 C-4162.37158005 3782.52303971 -4169.74089669 3771.30023512 -4177 3760 C-4177.56396484 3759.12287354 -4178.12792969 3758.24574707 -4178.70898438 3757.34204102 C-4209.44947776 3709.35043975 -4238.24355833 3659.8200264 -4264.35766602 3609.1574707 C-4265.60349378 3606.76230339 -4266.85928096 3604.37377206 -4268.12475586 3601.98901367 C-4275.21818612 3588.61173988 -4282.04639857 3575.10789904 -4288.8125 3561.5625 C-4289.38781464 3560.41126648 -4289.96312927 3559.26003296 -4290.55587769 3558.07391357 C-4298.41850567 3542.32625268 -4306.20669848 3526.5693023 -4313.42138672 3510.51220703 C-4314.56335563 3507.97147632 -4315.71038622 3505.43348426 -4316.86376953 3502.89794922 C-4341.58805367 3448.53278391 -4363.910909 3393.24115629 -4384 3337 C-4384.30617249 3336.14464661 -4384.61234497 3335.28929321 -4384.92779541 3334.40802002 C-4406.12899221 3275.14913022 -4424.36852731 3214.9627435 -4440 3154 C-4440.38641663 3152.49394196 -4440.38641663 3152.49394196 -4440.78063965 3150.9574585 C-4469.29672015 3039.54799106 -4488.43383115 2925.81994038 -4394.73962402 1951.1817627 C-4393.99714153 1948.991568 -4393.25824748 1946.80019489 -4392.52050781 1944.60839844 C-4385.10259228 1922.57769533 -4377.29036124 1900.71776364 -4369 1879 C-4368.50436554 1877.70098755 -4368.50436554 1877.70098755 -4367.99871826 1876.37573242 C-4357.28798251 1848.34182502 -4345.95173977 1820.62946789 -4333.93109131 1793.13244629 C-4333.08613307 1791.19726759 -4332.24437412 1789.26075518 -4331.40478516 1787.32324219 C-4318.05260201 1756.51334422 -4303.87049587 1726.10394495 -4289 1696 C-4288.57811401 1695.145271 -4288.15622803 1694.29054199 -4287.72155762 1693.40991211 C-4277.96951364 1673.66128134 -4268.22517758 1653.93880405 -4257.48828125 1634.703125 C-4255.45124933 1631.00331899 -4253.4760667 1627.27155926 -4251.49786377 1623.54005432 C-4244.73444629 1610.78396216 -4237.72787647 1598.21322982 -4230.38671875 1585.77734375 C-4227.06854685 1580.14808262 -4223.87407371 1574.45442132 -4220.6875 1568.75 C-4209.06361561 1548.03802631 -4196.42462261 1527.89091756 -4183.76464844 1507.80126953 C-4182.6226489 1505.98841636 -4181.48254744 1504.17436551 -4180.34472656 1502.35888672 C-4157.92869209 1466.59739781 -4134.04077851 1431.69200396 -4109.2734375 1397.5234375 C-4107.12308618 1394.55633553 -4104.98269684 1391.58249496 -4102.8515625 1388.6015625 C-4095.08010942 1377.74776602 -4087.05587164 1367.10383668 -4078.92822266 1356.51464844 C-4077.10788829 1354.1407001 -4075.29295214 1351.76275805 -4073.48046875 1349.3828125 C-4064.11664939 1337.091429 -4054.61223587 1324.93322844 -4044.83813477 1312.96508789 C-4041.31500652 1308.64383659 -4037.85846181 1304.27736495 -4034.4375 1299.875 C-4030.22178765 1294.46127533 -4025.8296858 1289.22619805 -4021.33959961 1284.03857422 C-4018.33714041 1280.56861082 -4015.39101911 1277.06419865 -4012.5 1273.5 C-4007.63020612 1267.50708248 -4002.5978376 1261.66045371 -3997.55712891 1255.81152344 C-3996.00548064 1254.00637604 -3994.46066415 1252.19561441 -3992.91796875 1250.3828125 C-3987.45564703 1243.96964865 -3981.9206709 1237.65069588 -3976.2265625 1231.44140625 C-3974.30866793 1229.33845167 -3972.42623955 1227.21330844 -3970.5625 1225.0625 C-3967.17256636 1221.16208223 -3963.6802915 1217.35822678 -3960.18115234 1213.55615234 C-3957.32690671 1210.45328919 -3954.49662767 1207.33142128 -3951.6875 1204.1875 C-3946.83260579 1198.78071728 -3941.87437152 1193.47300408 -3936.90480042 1188.17185974 C-3934.45162023 1185.55342982 -3932.00411672 1182.9299516 -3929.56309509 1180.30018616 C-3920.54753752 1170.60595423 -3911.30953755 1161.16136257 -3901.94140625 1151.80859375 C-3900.45728801 1150.32379915 -3898.973318 1148.83885637 -3897.48948669 1147.35377502 C-3894.41298298 1144.27581362 -3891.33472044 1141.19962575 -3888.25512695 1138.12475586 C-3884.32600357 1134.20136917 -3880.40144319 1130.27345338 -3876.47816563 1126.34422207 C-3873.42838119 1123.29081382 -3870.37620661 1120.2398037 -3867.32331657 1117.18950081 C-3865.87502812 1115.7418745 -3864.42746842 1114.29351871 -3862.98068428 1112.84438896 C-3860.96032836 1110.82147187 -3858.93675805 1108.80182344 -3856.91235352 1106.78295898 C-3856.32883118 1106.19741241 -3855.74530884 1105.61186584 -3855.144104 1105.00857544 C-3851.46673659 1101.34967616 -3847.65800796 1097.89119003 -3843.72671413 1094.50640965 C-3841.72185059 1092.75733855 -3839.84769306 1090.9136821 -3838 1089 C-3835.52286087 1086.43439162 -3832.94120754 1084.05515968 -3830.25 1081.71875 C-3826.06455629 1078.08361463 -3822.02414745 1074.31193655 -3818 1070.5 C-3813.3459372 1066.09136629 -3808.64082385 1061.76989159 -3803.79931641 1057.56738281 C-3801.56412587 1055.62031046 -3799.37529997 1053.62505531 -3797.1875 1051.625 C-3793.74621795 1048.51471149 -3790.23678702 1045.53521688 -3786.625 1042.625 C-3782.6117345 1039.38047268 -3778.77586874 1036.01250676 -3775 1032.5 C-3770.44753244 1028.26926933 -3765.75386472 1024.27724838 -3760.9140625 1020.37890625 C-3757.56017081 1017.64094373 -3754.27823425 1014.82765443 -3751 1012 C-3745.07784251 1006.90107345 -3739.07202178 1001.92001765 -3733 997 C-3731.75099132 995.98084948 -3730.50231548 994.96129098 -3729.25390625 993.94140625 C-3721.14362241 987.32247626 -3712.9728799 980.79002062 -3704.72216797 974.34716797 C-3702.96937764 972.97604562 -3701.22044132 971.60015196 -3699.47265625 970.22265625 C-3692.3405045 964.60186253 -3685.17885692 959.02167565 -3677.96582031 953.50488281 C-3676.53449336 952.40916755 -3675.10430775 951.31196089 -3673.67480469 950.21386719 C-3662.30767241 941.48310111 -3650.85282805 932.90785026 -3639.19287109 924.57226562 C-3636.98355207 922.98820701 -3634.78168204 921.39432711 -3632.58203125 919.796875 C-3600.10065681 896.21328594 -3566.85674972 873.56732 -3533 852 C-3532.30068359 851.55350098 -3531.60136719 851.10700195 -3530.88085938 850.64697266 C-3452.18514337 800.4619283 -3369.94619799 754.31014193 -3284.87158203 715.75830078 C-3281.23701726 714.11077857 -3277.61097295 712.44499669 -3273.98506165 710.77853394 C-3219.33914711 685.68174466 -3163.55115344 663.42010967 -3107 643 C-3106.11777771 642.68093689 -3105.23555542 642.36187378 -3104.32659912 642.03314209 C-3010.89429206 608.28250453 -2914.52254074 582.29695868 -2433.76953125 521.83203125 C-2432.41966929 521.83059848 -2431.06980749 521.82900055 -2429.71994591 521.82724571 C-2422.63482626 521.81807619 -2415.54972499 521.81389906 -2408.46459961 521.81469727 C-2402.73410209 521.81522659 -2397.00367339 521.80823454 -2391.27319336 521.79418945 C-2355.80513845 521.70931855 -2320.42783044 522.08178565 -2285 524 C-2284.25142101 524.040005 -2283.50284203 524.08000999 -2282.73157883 524.12122726 C-2273.75269184 524.60339405 -2264.78172907 525.17577064 -2255.8125 525.8125 C-2254.60570587 525.89648041 -2253.39891174 525.98046082 -2252.1555481 526.06698608 C-2134.10410712 534.31422603 -2016.81724193 551.93032994 -1892.05249023 582.25054932 C-1889.16400709 582.9597328 -1886.27452314 583.66468279 -1883.38476562 584.36865234 C-1837.98260579 595.46049385 -1793.01681865 608.58888639 -1748.60845947 623.1463623 C-1745.87220209 624.04182281 -1743.13425179 624.93195912 -1740.39599609 625.82128906 C-1698.95989862 639.29578942 -1658.1438914 654.20596387 -1617.6875 670.375 C-1617.0657338 670.62323517 -1616.44396759 670.87147034 -1615.80335999 671.12722778 C-1591.36639163 680.8860718 -1567.15954676 691.16387968 -1543.125 701.875 C-1542.37995209 702.20661133 -1541.63490417 702.53822266 -1540.86727905 702.87988281 C-1497.16837958 722.34578232 -1453.44123664 742.69689054 -1411.6015625 765.91796875 C-1407.37190481 768.26134427 -1403.11204598 770.54359147 -1398.8359375 772.80078125 C-1384.83678255 780.19437021 -1371.01947609 787.78155399 -1357.38671875 795.83984375 C-1352.65946334 798.63023179 -1347.87893913 801.30498011 -1343.0625 803.9375 C-1261.58113497 848.70218257 -1184.58088704 903.34386386 -1111 960 C-1110.25959473 960.57008789 -1109.51918945 961.14017578 -1108.75634766 961.72753906 C-1098.61913197 969.54487094 -1088.61547338 977.50725218 -1078.70556641 985.61035156 C-1076.37881824 987.50612176 -1074.03469693 989.37963521 -1071.6875 991.25 C-1063.63408111 997.67931275 -1055.69303753 1004.2332715 -1047.84326172 1010.90893555 C-1044.36815338 1013.85921686 -1040.85573776 1016.75642669 -1037.3125 1019.625 C-1032.91485904 1023.20166313 -1028.70731843 1026.94324823 -1024.51953125 1030.76171875 C-1021.96795083 1033.02847158 -1019.34828468 1035.17540087 -1016.6875 1037.3125 C-1010.68167798 1042.16989996 -1005.0758934 1047.41220095 -999.42919922 1052.67529297 C-992.87286933 1058.75227383 -985.93727772 1064.36740599 -979 1070 C-978.96841797 1069.2359082 -978.93683594 1068.47181641 -978.90429688 1067.68457031 C-978.28870172 1056.54877793 -976.44638927 1045.71804193 -974.5 1034.75 C-974.32393219 1033.74923431 -974.14786438 1032.74846863 -973.96646118 1031.71737671 C-958.84228006 946.02609742 -933.89518479 862.67728156 -884 747 C-883.01803263 744.92717643 -882.03626471 742.85425836 -881.0546875 740.78125 C-857.9048285 692.07000949 -831.81995062 644.95946712 -802 600 C-801.1210416 598.66800316 -800.24213319 597.33597333 -799.36328125 596.00390625 C-789.26712817 580.74401196 -778.78631797 565.77930013 -768 551 C-767.4337793 550.22221191 -766.86755859 549.44442383 -766.28417969 548.64306641 C-754.13235048 531.96603598 -741.5082842 515.70256767 -728.42822266 499.74414062 C-727.13995352 498.17091076 -725.85677275 496.59351752 -724.57421875 495.015625 C-719.28185996 488.51062983 -713.89151717 482.09315679 -708.45458984 475.70898438 C-707.47460698 474.55761142 -706.49578855 473.40524646 -705.51806641 472.25195312 C-699.29837437 464.91559431 -692.9691244 457.71240907 -686.4375 450.65234375 C-684.48256122 448.52509466 -682.57117955 446.37727748 -680.6875 444.1875 C-677.21588787 440.18631991 -673.61073299 436.31272095 -670 432.4375 C-669.41822998 431.81190186 -668.83645996 431.18630371 -668.23706055 430.54174805 C-665.3769666 427.48227158 -662.48438135 424.47373934 -659.5 421.53515625 C-657.1340099 419.19055444 -654.90971291 416.78008062 -652.74389648 414.25 C-649.18260195 410.15775684 -645.438586 406.29360112 -641.59765625 402.46484375 C-640.91626083 401.78249161 -640.23486542 401.10013947 -639.53282166 400.39710999 C-638.10294259 398.96655563 -636.67182089 397.53724233 -635.23950195 396.10913086 C-633.06802289 393.94300926 -630.90193675 391.77159826 -628.73632812 389.59960938 C-627.33625798 388.20020013 -625.93587762 386.80110116 -624.53515625 385.40234375 C-623.89844498 384.76360825 -623.2617337 384.12487274 -622.60572815 383.46678162 C-618.78036751 379.66094942 -614.84158976 376.04300093 -610.74754333 372.52735901 C-608.38290423 370.46065613 -606.19018563 368.24937984 -604 366 C-600.55563057 362.51909938 -597.04675105 359.22496381 -593.328125 356.04296875 C-590.1573247 353.26053828 -587.08306864 350.37893483 -584 347.5 C-579.07390395 342.90901253 -574.11722977 338.37827963 -569 334 C-567.96605322 333.11208701 -566.93220867 332.22405495 -565.8984375 331.3359375 C-563.50849346 329.28413254 -561.11628517 327.23500465 -558.72265625 325.1875 C-556.26836295 323.08768 -553.8179562 320.98347363 -551.37109375 318.875 C-544.32967921 312.81145276 -537.22034557 306.85047764 -530 301 C-528.75099132 299.98084948 -527.50231548 298.96129098 -526.25390625 297.94140625 C-513.98257544 287.92630627 -501.55208245 278.13152672 -488.97021484 268.50927734 C-486.68161693 266.75610358 -484.39772692 264.99686181 -482.11328125 263.23828125 C-472.58668745 255.92230742 -462.98739512 248.76608402 -453.1328125 241.8984375 C-449.6665446 239.48037685 -446.24763205 237.00338217 -442.83691406 234.5078125 C-430.38690982 225.41212562 -417.59974553 216.8151544 -404.8057251 208.21466064 C-403.03273528 207.0220201 -401.26104608 205.82747272 -399.48974609 204.63232422 C-383.86165697 194.09190509 -368.07182711 183.85493844 -352 174 C-350.91138672 173.33145996 -349.82277344 172.66291992 -348.70117188 171.97412109 C-317.55340972 152.87534266 -286.012101 134.46960981 -253.8359375 117.15234375 C-250.22473074 115.20753018 -246.62453171 113.24575343 -243.0390625 111.25390625 C-202.65982259 88.86287589 -161.01538008 68.50810374 -118.88270569 49.64126587 C-114.40083033 47.63363938 -109.93005888 45.60297889 -105.46484375 43.55859375 C-77.16316257 30.61907018 -48.50716092 18.52024009 -19.625 6.9375 C-18.30485397 6.40675873 -18.30485397 6.40675873 -16.95803833 5.86529541 C-14.4867255 4.87337252 -12.01338447 3.88673277 -9.5390625 2.90234375 C-8.80148209 2.60636795 -8.06390167 2.31039215 -7.30397034 2.00544739 C-2.23159578 0 -2.23159578 0 0 0 Z M-3515 1532 C-3516.06557129 1532.60086426 -3517.13114258 1533.20172852 -3518.22900391 1533.82080078 C-3532.98523863 1542.17247101 -3547.33938542 1551.01465658 -3561.4375 1560.4375 C-3562.11761139 1560.89195496 -3562.79772278 1561.34640991 -3563.4984436 1561.81463623 C-3575.5459632 1569.88581423 -3587.41950629 1578.20676397 -3599 1586.9375 C-3599.6602417 1587.43419189 -3600.3204834 1587.93088379 -3601.00073242 1588.44262695 C-3619.26500278 1602.23089561 -3637.08169304 1616.6518466 -3653.87817383 1632.2043457 C-3656.58478343 1634.71043195 -3659.32289313 1637.16389652 -3662.125 1639.5625 C-3666.1386666 1643.03490451 -3669.8226446 1646.80822064 -3673.55078125 1650.58203125 C-3676.31013595 1653.30617887 -3679.19372972 1655.83341631 -3682.1328125 1658.359375 C-3686.5185254 1662.21293027 -3690.50970662 1666.38775443 -3694.3125 1670.8125 C-3697.07618029 1674.02333755 -3699.98619596 1677.02267165 -3703 1680 C-3706.57083512 1683.53313399 -3709.96551225 1687.13373095 -3713.23046875 1690.94921875 C-3715.23786023 1693.27566583 -3717.30466638 1695.54192686 -3719.375 1697.8125 C-3723.27680286 1702.13611938 -3726.98148498 1706.58742452 -3730.640625 1711.1171875 C-3732.65181114 1713.57456394 -3734.70648644 1715.9847884 -3736.78540039 1718.38476562 C-3744.04596648 1726.80051199 -3750.62358345 1735.70390521 -3757.23339844 1744.63378906 C-3758.75150685 1746.66716478 -3760.2906368 1748.67915871 -3761.8515625 1750.6796875 C-3788.77808011 1785.36749211 -3811.04494401 1823.99624937 -3831 1863 C-3831.35868164 1863.69544922 -3831.71736328 1864.39089844 -3832.08691406 1865.10742188 C-3848.69691921 1897.33775958 -3862.29265997 1930.70518181 -3874 1965 C-3874.3825293 1966.12019531 -3874.76505859 1967.24039063 -3875.15917969 1968.39453125 C-3902.77490242 2050.04101585 -3915.79120159 2137.32100862 -3891 2377 C-3890.74733368 2378.04969971 -3890.74733368 2378.04969971 -3890.48956299 2379.12060547 C-3870.44111928 2462.38233577 -3836.99489334 2540.96694947 -3782 2626 C-3781.47825195 2626.76135254 -3780.95650391 2627.52270508 -3780.41894531 2628.30712891 C-3772.28390831 2640.14353733 -3763.83353329 2651.67699068 -3755 2663 C-3754.04272365 2664.2367895 -3753.08568521 2665.47376318 -3752.12890625 2666.7109375 C-3746.40483451 2674.08455701 -3740.48827188 2681.26948203 -3734.40917969 2688.35253906 C-3732.97597461 2690.0280879 -3731.55350262 2691.71226974 -3730.1328125 2693.3984375 C-3723.27690778 2701.50877821 -3716.14402856 2709.31650711 -3708.8515625 2717.03515625 C-3706.92518295 2719.07939447 -3705.00840792 2721.13228187 -3703.09375 2723.1875 C-3690.51165857 2736.71297541 -3690.51165857 2736.71297541 -3676.96484375 2749.25390625 C-3674.89179676 2751.09615675 -3672.94564198 2753.02401662 -3671 2755 C-3667.16395621 2758.88039111 -3663.13823895 2762.44723537 -3659 2766 C-3657.91854164 2766.9444782 -3656.83788062 2767.88986979 -3655.7578125 2768.8359375 C-3642.21049963 2780.68090306 -3628.40697337 2792.21039576 -3614 2803 C-3612.99259766 2803.75651855 -3612.99259766 2803.75651855 -3611.96484375 2804.52832031 C-3538.31530741 2859.69959642 -3455.39837106 2902.52476932 -3189 2962 C-3187.96667542 2962.0811203 -3187.96667542 2962.0811203 -3186.91247559 2962.16387939 C-3170.64525339 2963.40397932 -3154.30448171 2963.24567861 -3138 2963.25 C-3137.23554691 2963.25044186 -3136.47109383 2963.25088371 -3135.68347549 2963.25133896 C-3096.76497047 2963.26311168 -3058.52281621 2960.63242906 -3020 2955 C-3019.0892572 2954.8704895 -3018.1785144 2954.740979 -3017.24017334 2954.60754395 C-3002.66972087 2952.50393198 -2988.73669939 2949.27287088 -2974.62927246 2945.08853149 C-2968.87972373 2943.38619362 -2963.1152459 2941.73575845 -2957.3515625 2940.08203125 C-2956.16522217 2939.74090805 -2954.97888184 2939.39978485 -2953.7565918 2939.04832458 C-2933.35958503 2933.21002209 -2912.78745172 2928.01143572 -2892.21960449 2922.81384277 C-2889.09021487 2922.02280427 -2885.9615843 2921.22881767 -2882.83300781 2920.43457031 C-2768.66785103 2891.5168094 -2652.03618524 2870.99345169 -2477.8125 2857.8125 C-2477.0897287 2857.77547974 -2476.3669574 2857.73845947 -2475.62228394 2857.70031738 C-2447.72470372 2856.30477287 -2419.80400007 2855.78938557 -2391.875 2855.8125 C-2391.14211636 2855.81276688 -2390.40923271 2855.81303375 -2389.65414047 2855.81330872 C-2285.0323391 2855.86069186 -2180.98295232 2865.57109383 -2046 2890 C-2045.07350647 2890.18242249 -2044.14701294 2890.36484497 -2043.19244385 2890.55279541 C-2009.90985884 2897.12635006 -1976.91059266 2904.77235183 -1944 2913 C-1942.57554565 2913.35611359 -1942.57554565 2913.35611359 -1941.12231445 2913.71942139 C-1914.55707556 2920.37957672 -1888.24066538 2927.85639767 -1861.94921875 2935.51953125 C-1860.93543655 2935.81426834 -1859.92165436 2936.10900543 -1858.87715149 2936.41267395 C-1854.07542809 2937.809037 -1849.27657179 2939.21362057 -1844.48364258 2940.63989258 C-1832.85469064 2944.07339077 -1821.22589265 2946.81773938 -1809.3125 2949.0625 C-1808.43537354 2949.23019897 -1807.55824707 2949.39789795 -1806.65454102 2949.57067871 C-1765.83705306 2957.36090605 -1724.50023387 2962.27378142 -1682.94506836 2963.50268555 C-1680.9339509 2963.56260574 -1678.92304793 2963.62773491 -1676.91210938 2963.69335938 C-1597.82935195 2966.18096051 -1518.14430203 2955.32666733 -1265 2858 C-1264.16919922 2857.51499023 -1263.33839844 2857.02998047 -1262.48242188 2856.53027344 C-1252.16340478 2850.48837863 -1242.02347069 2844.17248008 -1231.9375 2837.75 C-1230.91479004 2837.1005542 -1229.89208008 2836.4511084 -1228.83837891 2835.78198242 C-1222.04042326 2831.42325414 -1215.49679862 2826.79321655 -1209 2822 C-1207.76423583 2821.1123706 -1206.5263112 2820.22773206 -1205.28515625 2819.34765625 C-1181.4291464 2802.43157654 -1158.24201703 2784.32014289 -1136.73046875 2764.484375 C-1134.55249072 2762.50269542 -1132.3538434 2760.55763759 -1130.1328125 2758.625 C-1119.69038923 2749.51098912 -1109.75143029 2739.8448188 -1099.9375 2730.0625 C-1099.15270264 2729.28229492 -1098.36790527 2728.50208984 -1097.55932617 2727.69824219 C-1093.43543135 2723.56331737 -1089.48285706 2719.34367112 -1085.6730957 2714.91821289 C-1082.91482096 2711.75583661 -1080.01108189 2708.73274976 -1077.125 2705.6875 C-1072.29146533 2700.54765042 -1067.67437054 2695.31704566 -1063.26953125 2689.80078125 C-1061.10031875 2687.12380127 -1058.87150719 2684.51477768 -1056.61376953 2681.9128418 C-1050.92598446 2675.35765608 -1045.5084162 2668.66001833 -1040.29492188 2661.72021484 C-1038.93851889 2659.91832656 -1037.57137977 2658.12493299 -1036.203125 2656.33203125 C-1017.91466498 2632.27663667 -1001.26474677 2607.07206236 -986 2581 C-985.5359375 2580.21608887 -985.071875 2579.43217773 -984.59375 2578.62451172 C-944.44395492 2510.71838261 -915.82104476 2435.43530085 -888.6875 2287.625 C-888.54022461 2286.36486084 -888.39294922 2285.10472168 -888.24121094 2283.80639648 C-887.77679137 2279.54096926 -887.37495029 2275.27407202 -887 2271 C-886.91386444 2270.04756409 -886.82772888 2269.09512817 -886.73898315 2268.11383057 C-884.92328909 2247.42634776 -884.65562883 2226.81916971 -884.68432617 2206.06591797 C-884.68893756 2202.45641551 -884.6820885 2198.8472517 -884.66381836 2195.23779297 C-884.56642815 2175.78235645 -884.84572811 2156.44594739 -886.375 2137.04296875 C-886.43629782 2136.26442661 -886.49759563 2135.48588448 -886.56075096 2134.68375015 C-892.8677817 2056.52863407 -911.83733949 1978.85802942 -986 1820 C-986.52851563 1819.09862305 -987.05703125 1818.19724609 -987.6015625 1817.26855469 C-1004.24436839 1789.01799469 -1022.80329774 1761.8247642 -1043 1736 C-1043.8805919 1734.86097352 -1044.76078993 1733.72164244 -1045.640625 1732.58203125 C-1050.80593759 1725.91851826 -1056.12630017 1719.42564513 -1061.64868164 1713.0546875 C-1064.77562526 1709.44545863 -1067.81827075 1705.78368134 -1070.8125 1702.0625 C-1073.80610198 1698.37308783 -1076.90865937 1694.96965647 -1080.32421875 1691.671875 C-1082.12600297 1689.87429075 -1083.77977256 1687.99339698 -1085.4375 1686.0625 C-1087.85617779 1683.25423653 -1090.35899683 1680.60029407 -1093 1678 C-1095.53814799 1675.50060236 -1097.94128303 1672.96218208 -1100.25 1670.25 C-1106.94264868 1662.48530233 -1114.33874356 1655.28189598 -1122.140625 1648.640625 C-1124.18300828 1646.83852211 -1126.08901711 1644.94061053 -1128 1643 C-1131.1711603 1639.78565269 -1134.45582753 1636.78249037 -1137.87890625 1633.83984375 C-1140.22491058 1631.80491181 -1142.5173645 1629.71709033 -1144.8125 1627.625 C-1149.07880589 1623.77949818 -1153.451693 1620.10268734 -1157.91796875 1616.4921875 C-1160.13919369 1614.69606391 -1162.34900377 1612.88991464 -1164.55078125 1611.0703125 C-1175.11419423 1602.3675314 -1185.99002154 1594.12766995 -1197 1586 C-1197.73412109 1585.45375977 -1198.46824219 1584.90751953 -1199.22460938 1584.34472656 C-1212.74938725 1574.29085463 -1226.80979801 1565.07917486 -1241 1556 C-1241.92748047 1555.40654785 -1242.85496094 1554.8130957 -1243.81054688 1554.20166016 C-1293.85039315 1522.34887553 -1347.88485519 1497.08240588 -1404 1478 C-1405.19318848 1477.59185059 -1406.38637695 1477.18370117 -1407.61572266 1476.76318359 C-1486.70230384 1449.90497403 -1569.53409476 1438.03268314 -1663.58080769 1437.87136555 C-1666.22460914 1437.87001456 -1668.86840776 1437.86826848 -1671.51220837 1437.86605331 C-1677.21755213 1437.86205191 -1682.92288675 1437.86164978 -1688.62823138 1437.86375926 C-1697.16950287 1437.86689978 -1705.71076616 1437.86419619 -1714.25203706 1437.86046055 C-1728.81815337 1437.85425923 -1743.3842667 1437.8527496 -1757.95038414 1437.85387802 C-1772.69433055 1437.8550058 -1787.43827444 1437.85395688 -1802.18222046 1437.85030556 C-1803.58355067 1437.84996108 -1803.58355067 1437.84996108 -1805.01319057 1437.84960964 C-1808.81868174 1437.84866791 -1812.6241729 1437.84771221 -1816.42966406 1437.84673845 C-1856.04648224 1437.8366161 -1895.663299 1437.83353328 -1935.28011832 1437.83294634 C-1939.53895853 1437.83288159 -1943.79779875 1437.83281365 -1948.05663896 1437.83274293 C-1949.64205239 1437.83271742 -1949.64205239 1437.83271742 -1951.25949438 1437.8326914 C-1974.72068428 1437.83228228 -1998.18187391 1437.83009025 -2021.64306367 1437.82758708 C-2031.31498351 1437.82655868 -2040.98690335 1437.82556862 -2050.65882319 1437.82457083 C-2051.72760587 1437.82446025 -2052.79638854 1437.82434966 -2053.89755857 1437.82423572 C-2115.11150156 1437.8179151 -2176.32544437 1437.81378623 -2237.5393877 1437.81424427 C-2239.8283188 1437.81426005 -2242.11724989 1437.81427578 -2244.40618099 1437.81429148 C-2254.73964574 1437.81436486 -2265.07311049 1437.81445303 -2275.40657524 1437.81454536 C-2280.01417548 1437.81458649 -2284.62177571 1437.81462663 -2289.22937594 1437.81466668 C-2291.53555751 1437.81468707 -2293.84173909 1437.81470809 -2296.14792066 1437.81472974 C-2369.05784436 1437.81540985 -2441.96776321 1437.80809352 -2514.87768555 1437.79418945 C-2533.24753474 1437.79068816 -2551.61738393 1437.78721859 -2569.98723316 1437.78392506 C-2571.11848207 1437.78372218 -2572.24973098 1437.78351931 -2573.41526017 1437.78331029 C-2608.30675842 1437.7770909 -2643.19825627 1437.77332888 -2678.08975506 1437.77206707 C-2679.73402731 1437.77200714 -2679.73402731 1437.77200714 -2681.41151719 1437.77194601 C-2705.48058895 1437.77109255 -2729.54966069 1437.7708316 -2753.61873246 1437.77111638 C-2762.23199901 1437.77121286 -2770.84526555 1437.77126491 -2779.4585321 1437.77129511 C-2781.60111585 1437.77130303 -2783.7436996 1437.77131323 -2785.88628334 1437.77132574 C-2819.95714302 1437.7715017 -2854.02799852 1437.7658185 -2888.098857 1437.75717192 C-2922.43339487 1437.74850273 -2956.76792697 1437.74634722 -2991.10246548 1437.75293324 C-2995.85909959 1437.75384538 -3000.61573372 1437.7546887 -3005.37236786 1437.75549126 C-3006.30468759 1437.75565134 -3007.23700731 1437.75581143 -3008.19757915 1437.75597637 C-3022.88955804 1437.75831853 -3037.58152688 1437.75399705 -3052.27350388 1437.74682007 C-3066.76176411 1437.73988474 -3081.25000968 1437.74022435 -3095.73826962 1437.74801221 C-3103.4707204 1437.75197702 -3111.20313887 1437.75293219 -3118.93558703 1437.74455485 C-3201.31886724 1437.66000789 -3281.6186645 1443.50464925 -3515 1532 Z "  transform="translate(5004,413)"/>
<path d="M0 0 C1.14592117 -0.01283524 2.29184235 -0.02567047 3.4724884 -0.03889465 C4.70061752 -0.04628159 5.92874664 -0.05366852 7.1940918 -0.0612793 C9.11852364 -0.07338692 9.11852364 -0.07338692 11.08183289 -0.08573914 C13.79934552 -0.10072316 16.51683253 -0.1105773 19.234375 -0.11816406 C21.98753393 -0.12696474 24.74017837 -0.14770376 27.49316406 -0.1796875 C61.06653525 -0.56119647 88.55066471 6.37810708 113.08081055 30.17700195 C134.119303 52.51416678 141.27847955 79.36708033 141.19433594 109.16381836 C141.19405328 110.54458616 141.19421334 111.92535411 141.19477844 113.30612183 C141.19506334 117.02443276 141.18921667 120.7427109 141.18220448 124.46101427 C141.17591941 128.35807151 141.17536309 132.25512964 141.17417908 136.15219116 C141.17108088 143.51838652 141.16288801 150.88456689 141.15282959 158.25075567 C141.14162133 166.64260334 141.13614616 175.03445175 141.13113415 183.42630506 C141.12070402 200.676546 141.10313406 217.92677239 141.08081055 235.17700195 C142.1627804 235.17285388 142.1627804 235.17285388 143.26660824 235.16862202 C160.88926947 235.10211435 178.51189845 235.05260156 196.13465786 235.02156544 C204.65720083 235.00615429 213.17965957 234.98517607 221.70214844 234.95068359 C229.13796411 234.92060371 236.57371872 234.90138525 244.00959355 234.89473647 C247.93993356 234.89085539 251.87009904 234.88185735 255.80038261 234.85981178 C287.3170387 234.69005861 316.38971221 237.61638215 341.08081055 259.17700195 C341.74081055 259.69391602 342.40081055 260.21083008 343.08081055 260.7434082 C362.10458976 276.04681124 372.7632499 300.48544788 376.08081055 324.17700195 C376.36470128 328.40923569 376.40825765 332.62753109 376.41674805 336.8684082 C376.42340485 338.05313217 376.43006165 339.23785614 376.43692017 340.45848083 C376.4469903 342.95358747 376.45173895 345.44872072 376.45141602 347.94384766 C376.45577057 351.70497558 376.4921024 355.46491048 376.5300293 359.22583008 C376.67771736 390.83042152 368.42043809 417.72371646 345.95581055 440.80200195 C325.9311778 460.67614012 299.12459603 469.3623873 271.26646423 469.42584229 C270.00193924 469.41865173 268.73741425 469.41146118 267.43457031 469.40405273 C266.04321297 469.40348655 264.65185504 469.40380921 263.26049805 469.40493774 C259.53624413 469.40550418 255.81212292 469.39386683 252.08789945 469.37978983 C248.17619606 469.36716226 244.26448857 469.3661026 240.35276794 469.36373901 C232.96900943 469.35755918 225.58531119 469.34119647 218.20157903 469.32104003 C209.78543852 469.29857121 201.36929491 469.28766018 192.95313179 469.27764916 C175.66232337 469.25682652 158.37157336 469.22171969 141.08081055 469.17700195 C141.08357593 470.23854539 141.08357593 470.23854539 141.08639717 471.32153416 C141.13071107 488.6013526 141.16373239 505.88115646 141.18443489 523.16101933 C141.19471449 531.51768609 141.20871082 539.87431474 141.23168945 548.23095703 C141.2517255 555.52099191 141.26455103 562.81099916 141.26898754 570.10106081 C141.27157775 573.95528266 141.27759535 577.80942555 141.29227066 581.6636219 C141.30601669 585.30383839 141.30999948 588.94394466 141.30702591 592.58418465 C141.30782401 594.53150985 141.31849536 596.47882353 141.32965088 598.42611694 C141.26013163 628.7338356 131.43326833 654.59517758 110.39331055 676.36450195 C91.20009759 695.43598206 65.1467039 704.50006024 38.4050293 704.4777832 C36.6526873 704.48421089 36.6526873 704.48421089 34.86494446 704.49076843 C32.41029504 704.49647294 29.95562873 704.4970409 27.50097656 704.49267578 C23.78835589 704.489519 20.07653606 704.51301463 16.36401367 704.53833008 C-11.37469596 704.61294845 -36.59353658 698.88306771 -57.91918945 680.17700195 C-58.66426758 679.57500977 -59.4093457 678.97301758 -60.17700195 678.3527832 C-79.24073438 662.51062228 -89.91089505 638.39361441 -92.91918945 614.17700195 C-93.17866899 609.28349123 -93.17307749 604.40358497 -93.14624023 599.50415039 C-93.14567463 598.07382719 -93.14599558 596.64350341 -93.14712524 595.21318054 C-93.14769395 591.36892021 -93.1360187 587.52478728 -93.12197733 583.6805563 C-93.10938867 579.64871827 -93.10829311 575.61687662 -93.10592651 571.58502197 C-93.09973547 563.96741919 -93.08335716 556.3498745 -93.06322753 548.73229718 C-93.04079415 540.05262755 -93.02985648 531.37295499 -93.01983666 522.69326353 C-92.99898855 504.85447686 -92.96385928 487.01574409 -92.91918945 469.17700195 C-93.98846349 469.17976733 -93.98846349 469.17976733 -95.07933903 469.18258858 C-112.48433556 469.22690089 -129.88931762 469.25992303 -147.29435825 469.2806263 C-155.71155902 469.29090626 -164.12872196 469.30490329 -172.54589844 469.32788086 C-179.88867102 469.3479158 -187.23141619 469.36074218 -194.57421535 469.36517894 C-198.45638263 469.36776934 -202.33847151 469.37378816 -206.22061348 469.38846207 C-209.88709459 469.40220633 -213.55346627 469.40619123 -217.2199707 469.40321732 C-219.18160918 469.40401557 -221.14323621 469.41468787 -223.10484314 469.42584229 C-252.95019886 469.35786082 -278.37853232 459.34088525 -300.22387695 438.92700195 C-323.22045544 415.46382623 -329.10754753 386.40714871 -329.10449219 354.54296875 C-329.10667069 352.01130133 -329.12487151 349.48007672 -329.14379883 346.94848633 C-329.25854284 314.43695772 -320.91817069 286.87764702 -297.91918945 263.17700195 C-291.33873047 256.57226084 -284.00028457 251.78342472 -275.91918945 247.17700195 C-275.09676758 246.70262695 -274.2743457 246.22825195 -273.42700195 245.73950195 C-257.50812251 237.16367464 -240.05827315 234.8512921 -222.22460938 234.94995117 C-220.80399076 234.95051696 -219.38337157 234.95019547 -217.9627533 234.94906616 C-214.14954237 234.94849818 -210.33646025 234.96016142 -206.52327895 234.97421408 C-202.52214338 234.98681508 -198.52100404 234.98789925 -194.51985168 234.99026489 C-186.96248908 234.99645237 -179.40518514 235.01282574 -171.84784824 235.03296387 C-163.23586884 235.0554085 -154.62388647 235.06633773 -146.01188505 235.07635474 C-128.31428674 235.09719476 -110.61674283 235.13231692 -92.91918945 235.17700195 C-92.92287663 234.44814663 -92.9265638 233.71929131 -92.9303627 232.96834946 C-93.01911967 215.14437239 -93.08509492 197.32044005 -93.12643814 179.4962883 C-93.1469684 170.87626911 -93.17490389 162.25639841 -93.22094727 153.63647461 C-93.26110998 146.11383206 -93.28669134 138.59129716 -93.29554343 131.06855035 C-93.300709 127.09390173 -93.31264446 123.11956081 -93.34210968 119.1450119 C-93.60135536 82.70695812 -87.96560696 54.49802955 -62.23168945 27.11450195 C-45.92099925 11.41385725 -22.88455465 0.22498908 0 0 Z "  transform="translate(1812.919189453125,2207.822998046875)"/>
<path d="M0 0 C1.04374786 0.00406357 1.04374786 0.00406357 2.10858154 0.00820923 C13.23629645 0.07370012 23.54337822 1.06334669 34.1875 4.4375 C35.37214844 4.788125 36.55679688 5.13875 37.77734375 5.5 C67.81525011 15.23106528 91.8028881 36.80410032 106.41992188 64.55249023 C120.16048803 92.0653641 122.89652685 125.71580668 113.35791016 154.98291016 C102.46971999 186.39637153 81.57128561 209.84919501 52.25 225.1875 C23.0695295 239.225321 -9.63007884 240.31715872 -40.19799805 230.10961914 C-53.37507257 225.44243481 -65.16653346 218.51730014 -75.8125 209.4375 C-76.59753906 208.78523438 -77.38257812 208.13296875 -78.19140625 207.4609375 C-100.2142815 188.50541107 -114.84850097 161.45451518 -117.8125 132.4375 C-120.08875102 98.83664794 -112.57276382 67.00085956 -90.32177734 41.14599609 C-66.98197156 14.72542656 -35.41065014 -0.32593664 0 0 Z "  transform="translate(3373.8125,2207.5625)"/>
<path d="M0 0 C22.92850237 19.39770112 39.49529453 47.30611949 42.08984375 77.65234375 C44.27353365 115.27809002 34.66247151 146.13385918 9.6953125 174.359375 C-11.52417102 196.70493394 -41.93737637 209.30953142 -72.5715332 210.12719727 C-106.75673219 210.38467993 -136.37807867 198.37621034 -161.09765625 174.90234375 C-171.38139927 164.19644379 -178.89212487 152.15916506 -184.91015625 138.65234375 C-185.39226563 137.59789063 -185.874375 136.5434375 -186.37109375 135.45703125 C-197.95031073 108.01779586 -197.17710153 75.02653638 -186.46533203 47.45288086 C-174.52322409 18.6964887 -152.49301157 -4.73818 -123.91015625 -17.34765625 C-82.3023788 -34.22992486 -34.94746885 -28.54986247 0 0 Z " transform="translate(3449.91015625,2702.34765625)"/>
<path d="M0 0 C10.88394974 8.98982878 20.49068776 18.91388411 27.75 31.07641602 C28.12995117 31.7088623 28.50990234 32.34130859 28.90136719 32.99291992 C44.44250382 59.35391632 49.7505142 91.74689569 42.58422852 121.71264648 C42.01728122 123.85020712 41.40092953 125.96301491 40.75 128.07641602 C40.43651611 129.10629639 40.43651611 129.10629639 40.11669922 130.15698242 C31.02292828 158.95051782 10.48277495 184.3266707 -16.29516602 198.43652344 C-46.16519142 213.46371642 -79.36302004 216.59696304 -111.25 206.45141602 C-141.29311415 196.24754258 -166.15048225 174.30559306 -180.31103516 145.9519043 C-194.01189159 116.58327026 -195.5629632 82.33092848 -184.5625 51.82641602 C-172.95742296 22.0098359 -150.25493183 -1.42886472 -121.28076172 -14.8347168 C-116.69613167 -16.83465353 -112.03322071 -18.46762593 -107.25 -19.92358398 C-106.56728027 -20.1338623 -105.88456055 -20.34414062 -105.18115234 -20.56079102 C-69.89769702 -30.8882543 -28.80766025 -22.78955998 0 0 Z " transform="translate(3681.25,2465.923583984375)"/>
<path d="M0 0 C25.16759505 20.09651246 41.0585464 46.01209887 46.23046875 77.8671875 C49.85437849 110.63993649 42.34238972 142.3755911 21.92919922 168.45361328 C10.71983371 182.43298947 -2.49938806 192.84630874 -18.3828125 201.08984375 C-19.28257812 201.56035156 -20.18234375 202.03085938 -21.109375 202.515625 C-48.15216261 215.71021775 -80.50411243 216.70014898 -109.0078125 207.90234375 C-139.54310589 196.97357956 -165.15364194 175.16791305 -179.1953125 145.71484375 C-186.5206778 129.67949208 -189.77300563 112.97763954 -189.6953125 95.40234375 C-189.69315735 94.73965485 -189.6910022 94.07696594 -189.68878174 93.39419556 C-189.51975761 60.99774224 -177.0703095 32.9340962 -154.5703125 9.83984375 C-113.54039354 -30.65808274 -45.87490534 -34.6388778 0 0 Z "  transform="translate(3211.3828125,2464.91015625)"/>
</svg>